# xmcd
#
# Track frame offsets:
#	150
#	17765
#	35876
#	53631
#	78138
#	101618
#	118332
#	156001
#	177337
#	198596
#	217418
#	238038
#
# Disc length: 3413 seconds
#
# Revision: 1
# Processed by: cddbd v1.5.2PL0 Copyright (c) Steve Scherf et al.
# Submitted via: audiograbber 1.83.01
#
DISCID=a90d530c
DTITLE=Scott McKeon - Trouble
DYEAR=2010
DGENRE=Blues
TTITLE0=The Girl
TTITLE1=I Can Tell
TTITLE2=Trouble
TTITLE3=Scarecrow
TTITLE4=Talk To Me
TTITLE5=Broken Man
TTITLE6=All That We Were
TTITLE7=Capture Me
TTITLE8=So Much More
TTITLE9=Giving Me The Blues
TTITLE10=What I've Become
TTITLE11=Home
EXTD=
EXTT0=
EXTT1=
EXTT2=
EXTT3=
EXTT4=
EXTT5=
EXTT6=
EXTT7=
EXTT8=
EXTT9=
EXTT10=
EXTT11=
PLAYORDER=
